<svg xmlns="http://www.w3.org/2000/svg" width="225" height="225" viewBox="0 0 225 225">
<g>
<path d="M 0.00 0.00 L 225.00 0.00 L 225.00 225.00 L 0.00 225.00 ZM 96.00 196.96 C107.56,199.44 122.54,199.09 134.00,196.08 C145.60,193.03 160.57,185.00 169.22,177.19 C179.19,168.18 184.28,161.41 190.00,149.50 C196.55,135.88 198.49,127.40 198.49,112.50 C198.49,97.60 196.55,89.12 190.00,75.50 C181.25,57.31 168.71,44.43 151.60,36.10 C136.90,28.94 130.42,27.50 113.00,27.50 C95.55,27.50 88.96,28.96 74.50,36.05 C57.10,44.57 44.65,56.98 35.98,74.46 C28.92,88.69 26.65,99.58 27.32,116.00 C28.11,135.59 34.01,151.44 46.14,166.52 C57.92,181.16 77.18,192.92 96.00,196.96 ZM 130.69 172.71 C112.03,178.11 94.80,175.58 78.76,165.10 C45.23,143.17 40.27,96.65 68.46,68.46 C96.79,40.13 144.04,45.14 165.79,78.79 C173.38,90.54 177.23,107.33 175.18,119.76 C172.44,136.32 166.74,147.68 155.99,157.99 C148.33,165.33 140.55,169.85 130.69,172.71 ZM 125.91 149.68 C133.99,153.94 142.36,152.10 148.30,144.76 C157.17,133.81 148.87,116.00 134.90,116.00 C115.49,116.00 108.89,140.70 125.91,149.68 ZM 126.50 107.42 C130.27,109.39 138.22,109.45 141.90,107.55 C146.12,105.37 150.82,99.49 151.57,95.46 C153.15,87.07 149.53,78.88 142.70,75.34 C137.58,72.69 128.79,73.21 123.88,76.46 C116.71,81.20 114.19,90.47 117.88,98.50 C119.91,102.92 121.99,105.07 126.50,107.42 ZM 82.88 149.38 C90.84,153.81 98.76,152.45 104.75,145.63 C108.62,141.22 109.38,138.59 108.80,131.61 C108.03,122.37 101.00,116.04 91.50,116.04 C73.07,116.04 66.77,140.41 82.88,149.38 ZM 83.58 107.34 C87.41,109.41 95.31,109.42 99.66,107.36 C105.18,104.74 108.32,99.79 108.81,92.90 C109.34,85.64 107.98,82.12 102.88,77.51 C98.96,73.97 96.58,73.34 89.00,73.89 C80.13,74.54 73.70,82.05 73.79,91.67 C73.85,98.84 76.90,103.72 83.58,107.34 Z" fill="rgb(0,0,0)"/>
<path d="M 96.00 196.96 C77.18,192.92 57.92,181.16 46.14,166.52 C34.01,151.44 28.11,135.59 27.32,116.00 C26.65,99.58 28.92,88.69 35.98,74.46 C44.65,56.98 57.10,44.57 74.50,36.05 C88.96,28.96 95.55,27.50 113.00,27.50 C130.42,27.50 136.90,28.94 151.60,36.10 C168.71,44.43 181.25,57.31 190.00,75.50 C196.55,89.12 198.49,97.60 198.49,112.50 C198.49,127.40 196.55,135.88 190.00,149.50 C184.28,161.41 179.19,168.18 169.22,177.19 C160.57,185.00 145.60,193.03 134.00,196.08 C122.54,199.09 107.56,199.44 96.00,196.96 ZM 130.69 172.71 C140.55,169.85 148.33,165.33 155.99,157.99 C166.74,147.68 172.44,136.32 175.18,119.76 C177.23,107.33 173.38,90.54 165.79,78.79 C144.04,45.14 96.79,40.13 68.46,68.46 C40.27,96.65 45.23,143.17 78.76,165.10 C94.80,175.58 112.03,178.11 130.69,172.71 ZM 82.88 149.38 C66.77,140.41 73.07,116.04 91.50,116.04 C101.00,116.04 108.03,122.37 108.80,131.61 C109.38,138.59 108.62,141.22 104.75,145.63 C98.76,152.45 90.84,153.81 82.88,149.38 ZM 125.91 149.68 C108.89,140.70 115.49,116.00 134.90,116.00 C148.87,116.00 157.17,133.81 148.30,144.76 C142.36,152.10 133.99,153.94 125.91,149.68 ZM 83.58 107.34 C76.90,103.72 73.85,98.84 73.79,91.67 C73.70,82.05 80.13,74.54 89.00,73.89 C96.58,73.34 98.96,73.97 102.88,77.51 C107.98,82.12 109.34,85.64 108.81,92.90 C108.32,99.79 105.18,104.74 99.66,107.36 C95.31,109.42 87.41,109.41 83.58,107.34 ZM 126.50 107.42 C121.99,105.07 119.91,102.92 117.88,98.50 C114.19,90.47 116.71,81.20 123.88,76.46 C128.79,73.21 137.58,72.69 142.70,75.34 C149.53,78.88 153.15,87.07 151.57,95.46 C150.82,99.49 146.12,105.37 141.90,107.55 C138.22,109.45 130.27,109.39 126.50,107.42 Z" fill="rgb(254,254,254)"/>
</g>
</svg>